<?xml version="1.0" encoding="utf-8"?>
<!-- Generator: Adobe Illustrator 16.0.3, SVG Export Plug-In . SVG Version: 6.00 Build 0)  -->
<!DOCTYPE svg PUBLIC "-//W3C//DTD SVG 1.1//EN" "http://www.w3.org/Graphics/SVG/1.1/DTD/svg11.dtd">
<svg version="1.1" id="Ebene_1" xmlns="http://www.w3.org/2000/svg" xmlns:xlink="http://www.w3.org/1999/xlink" x="0px" y="0px"
	 width="194.807px" height="43.938px" viewBox="3 6.349 194.807 43.938" enable-background="new 3 6.349 194.807 43.938"
	 xml:space="preserve">
<g>
	<g>
		<path fill="#DD0B2F" d="M60.066,30.507l19.73,0.034c-11.943,0.955-18.529,9.798-19.73,19.746V30.507z"/>
		<path d="M60.066,25.607"/>
		<path fill="#DD0B2F" d="M60.066,25.4l0.952-0.09c11.968-0.962,18.547-8.987,19.744-18.961l0.01,19.086L60.066,25.4z"/>
		<path d="M45.835,33.372h4.359c-0.069,3.165-1.187,5.372-3.328,6.62c-2.162,1.262-5.924,1.894-11.268,1.894
			c-4.425,0-7.783-0.184-10.083-0.516c-2.296-0.354-4.027-0.929-5.2-1.746c-2.672-1.897-4.01-5.643-4.01-11.238
			c0-3.921,0.562-6.869,1.696-8.829c1.079-1.884,2.634-3.155,4.675-3.813c2.03-0.654,5.426-0.983,10.185-0.983
			c4.544,0,7.837,0.24,9.869,0.72c2.034,0.486,3.644,1.422,4.854,2.787c1,1.161,1.683,2.493,2.058,4.024
			c0.369,1.521,0.569,3.846,0.614,6.976h-29.47c0.106,3.283,0.752,5.554,1.949,6.785c0.796,0.84,2.069,1.412,3.84,1.715
			c1.751,0.313,4.613,0.463,8.568,0.463c2.993,0,5.186-0.14,6.575-0.423c1.4-0.283,2.435-0.789,3.124-1.543
			C45.367,35.686,45.691,34.72,45.835,33.372z M45.633,25.662c-0.017-2.583-0.702-4.386-2.068-5.41
			c-0.896-0.69-2.148-1.162-3.745-1.432c-1.61-0.278-3.973-0.412-7.076-0.412c-2.717,0-4.775,0.129-6.199,0.383
			c-1.431,0.248-2.538,0.688-3.334,1.318c-1.314,1.024-2.075,2.876-2.289,5.553H45.633z"/>
		<path d="M94.182,8.531h4.172v6.563h18.553v3.603H98.354v11.469c0.031,2.506,0.104,4.049,0.189,4.605
			c0.098,0.553,0.367,1.111,0.824,1.67c0.509,0.658,1.296,1.111,2.345,1.389c1.046,0.264,2.567,0.399,4.578,0.399
			c1.886,0,3.248-0.13,4.113-0.388c0.858-0.267,1.53-0.742,2.013-1.429c0.318-0.486,0.525-1.064,0.635-1.728
			c0.09-0.669,0.155-1.807,0.155-3.409V29.6h4.163v1.675c0,2.023-0.104,3.557-0.298,4.605c-0.188,1.052-0.558,1.976-1.097,2.772
			c-0.787,1.146-1.949,1.979-3.496,2.481c-1.545,0.492-3.715,0.749-6.504,0.749c-2.869,0-5.117-0.235-6.728-0.701
			c-1.608-0.462-2.801-1.223-3.584-2.278c-0.579-0.781-0.974-1.683-1.166-2.706c-0.213-1.021-0.317-2.568-0.317-4.648V18.696h-6.455
			v-3.603h6.455L94.182,8.531L94.182,8.531z"/>
		<path d="M153.104,41.772h4.373c-0.071,3.165-1.185,5.37-3.342,6.626c-2.158,1.258-5.91,1.887-11.262,1.887
			c-4.432,0-7.79-0.173-10.081-0.517c-2.291-0.349-4.021-0.921-5.198-1.749c-2.67-1.891-4.021-5.637-4.021-11.227
			c0-3.926,0.571-6.873,1.71-8.841c1.082-1.884,2.627-3.145,4.662-3.806c2.044-0.658,5.439-0.988,10.188-0.988
			c4.553,0,7.846,0.24,9.87,0.727c2.027,0.488,3.642,1.414,4.845,2.782c1.01,1.157,1.703,2.499,2.076,4.022
			c0.365,1.528,0.57,3.853,0.613,6.977h-29.482c0.115,3.293,0.765,5.555,1.957,6.789c0.797,0.836,2.082,1.402,3.83,1.71
			c1.76,0.31,4.615,0.464,8.578,0.464c2.996,0,5.18-0.142,6.576-0.422c1.396-0.277,2.438-0.792,3.127-1.539
			C152.641,44.086,152.969,43.119,153.104,41.772z M152.898,34.068c-0.023-2.59-0.702-4.389-2.057-5.409
			c-0.896-0.695-2.14-1.168-3.75-1.438c-1.605-0.279-3.97-0.406-7.078-0.406c-2.707,0-4.774,0.127-6.188,0.372
			c-1.431,0.257-2.542,0.693-3.345,1.335c-1.317,1.011-2.076,2.859-2.284,5.547H152.898z"/>
		<polygon points="163.012,15.094 169.232,15.094 179.635,25.156 190.113,15.094 196.284,15.094 182.9,27.637 197.807,41.537 
			191.289,41.537 179.635,30.284 167.895,41.537 161.371,41.537 176.465,27.637 		"/>
		<path d="M7.253,8.508v20.098v1.121c-0.018,2.422-0.018,4.246,0.627,5.479c0.752,1.431,1.886,2.134,3.427,2.134h0.286v4.462h-0.69
			c-2.596,0-4.551-1.042-5.889-3.116C3.675,36.62,3,34.851,3,32.112v-6.184L3.014,8.509L7.253,8.508L7.253,8.508z"/>
	</g>
</g>
</svg>
